# File created by Blade
# Date/Time:  Wed Apr 08 17:12:22 2015
#---------------------------------------------------------
:version 1.10
:name HOM
:units
  mass 1.0
  length 1.000000
  angle deg
:documentation
     Acclaim Skeleton File
:root
   axis xyz
   order TX TY TZ RX RY RZ
   position 0.000000 0.000000 0.000000
   orientation 0 0 0
:bonedata
   begin
      id 1
      name Spine_dum
      direction 0.000000 1.000000 0.000000
      length 5.893853
      axis 0.0 0.0 0.0 xyz
   end
   begin
      id 2
      name LeftUpLeg_dum
      direction 1.000000 0.000000 0.000000
      length 3.697939
      axis 0.0 0.0 0.0 xyz
   end
   begin
      id 3
      name RightUpLeg_dum
      direction -1.000000 0.000000 0.000000
      length 3.697939
      axis 0.0 0.0 0.0 xyz
   end
   begin
      id 4
      name Spine
      direction 0.000000 1.000000 0.000000
      length 0.000000
      axis 0.0 0.0 0.0 xyz
      dof rx ry rz
   end
   begin
      id 5
      name Spine_dum1
      direction 0.000000 1.000000 0.000000
      length 16.447146
      axis 0.0 0.0 0.0 xyz
   end
   begin
      id 6
      name Spine_dum2
      direction 0.000000 1.000000 0.000000
      length 10.900383
      axis 0.0 0.0 0.0 xyz
   end
   begin
      id 7
      name Spine_dum3
      direction 0.000000 1.000000 0.000000
      length 10.900383
      axis 0.0 0.0 0.0 xyz
   end
   begin
      id 8
      name Head
      direction 0.000000 1.000000 0.000000
      length 4.527550
      axis 0.0 0.0 0.0 xyz
      dof rx ry rz
   end
   begin
      id 9
      name LeftShoulder
      direction 1.000000 0.000000 0.000000
      length 8.219464
      axis 0.0 0.0 -90.0 xyz
      dof rx ry rz
   end
   begin
      id 10
      name LeftArm
      direction 1.000000 0.000000 0.000000
      length 11.094937
      axis 0.0 0.0 -90.0 xyz
      dof rx ry rz
   end
   begin
      id 11
      name LeftForeArm
      direction 1.000000 0.000000 0.000000
      length 9.103875
      axis 0.0 0.0 -90.0 xyz
      dof ry rz rx
   end
   begin
      id 12
      name LeftHand
      direction 0.000000 0.000000 0.000000
      length 0.000000
      axis 0.0 0.0 -90.0 xyz
      dof rx ry rz
   end
   begin
      id 13
      name LeftHand_dum1
      direction 0.000000 0.000000 0.000000
      length 0.000000
      axis 0.0 0.0 -90.0 xyz
   end
   begin
      id 14
      name LeftHand_dum2
      direction 1.000000 0.000000 0.000000
      length 3.937000
      axis 0.0 0.0 -90.0 xyz
   end
   begin
      id 15
      name LeftHandThumb1
      direction 0.000000 0.000000 1.000000
      length 3.937000
      axis 0.0 0.0 -90.0 xyz
      dof rx rz ry
   end
   begin
      id 16
      name RightShoulder
      direction -1.000000 0.000000 0.000000
      length 8.219464
      axis 0.0 0.0 90.0 xyz
      dof rx ry rz
   end
   begin
      id 17
      name RightArm
      direction -1.000000 0.000000 0.000000
      length 11.094937
      axis 0.0 0.0 90.0 xyz
      dof rx ry rz
   end
   begin
      id 18
      name RightForeArm
      direction -1.000000 0.000000 0.000000
      length 9.103875
      axis 0.0 0.0 90.0 xyz
      dof ry rz rx
   end
   begin
      id 19
      name RightHand
      direction 0.000000 0.000000 0.000000
      length 0.000000
      axis 0.0 0.0 90.0 xyz
      dof rx ry rz
   end
   begin
      id 20
      name RightHand_dum1
      direction 0.000000 0.000000 0.000000
      length 0.000000
      axis 0.0 0.0 90.0 xyz
   end
   begin
      id 21
      name RightHand_dum2
      direction -1.000000 0.000000 0.000000
      length 3.937000
      axis 0.0 0.0 90.0 xyz
   end
   begin
      id 22
      name RightHandThumb1
      direction 0.000000 0.000000 1.000000
      length 3.937000
      axis 0.0 0.0 90.0 xyz
      dof rx rz ry
   end
   begin
      id 23
      name LeftUpLeg
      direction 0.000000 -1.000000 0.000000
      length 16.181467
      axis 0.0 0.0 0.0 xyz
      dof rx ry rz
   end
   begin
      id 24
      name LeftLeg
      direction 0.000000 -1.000000 0.000000
      length 16.501392
      axis 0.0 0.0 0.0 xyz
      dof rx ry rz
   end
   begin
      id 25
      name LeftFoot
      direction 0.000000 -0.258819 0.965926
      length 6.408245
      axis 15.0 0.0 0.0 xyz
      dof rx ry rz
   end
   begin
      id 26
      name LeftToeBase
      direction 0.000000 0.000000 1.000000
      length 2.952750
      axis 0.0 0.0 0.0 xyz
      dof rx ry rz
   end
   begin
      id 27
      name RightUpLeg
      direction 0.000000 -1.000000 0.000000
      length 16.181467
      axis 0.0 0.0 0.0 xyz
      dof rx ry rz
   end
   begin
      id 28
      name RightLeg
      direction 0.000000 -1.000000 0.000000
      length 16.501392
      axis 0.0 0.0 0.0 xyz
      dof rx ry rz
   end
   begin
      id 29
      name RightFoot
      direction 0.000000 -0.258819 0.965926
      length 6.408245
      axis 15.0 0.0 0.0 xyz
      dof rx ry rz
   end
   begin
      id 30
      name RightToeBase
      direction 0.000000 0.000000 1.000000
      length 2.952750
      axis 0.0 0.0 0.0 xyz
      dof rx ry rz
   end
:hierarchy
   begin
      root Spine_dum LeftUpLeg_dum RightUpLeg_dum
      Spine_dum Spine
      LeftUpLeg_dum LeftUpLeg
      RightUpLeg_dum RightUpLeg
      Spine Spine_dum1 Spine_dum2 Spine_dum3
      Spine_dum1 Head
      Spine_dum2 LeftShoulder
      Spine_dum3 RightShoulder
      LeftShoulder LeftArm
      LeftArm LeftForeArm
      LeftForeArm LeftHand
      LeftHand LeftHand_dum1 LeftHand_dum2
      LeftHand_dum1 LeftHandThumb1
      RightShoulder RightArm
      RightArm RightForeArm
      RightForeArm RightHand
      RightHand RightHand_dum1 RightHand_dum2
      RightHand_dum1 RightHandThumb1
      LeftUpLeg LeftLeg
      LeftLeg LeftFoot
      LeftFoot LeftToeBase
      RightUpLeg RightLeg
      RightLeg RightFoot
      RightFoot RightToeBase
   end

# File created by Blade
# Date/Time:  Wed Apr 08 17:12:12 2015
# Frame Rate: 120.000 fps
#------------------------------------------------------
:FULLY-SPECIFIED
:DEGREES
1
root 4.717162 36.418552 -2.395744 -88.830853 -86.484870 110.275127
Spine -16.098293 2.957026 -2.382778
Head 7.435859 11.066628 1.938599
LeftShoulder -5.877944 13.131027 27.481321
LeftArm 15.992782 -39.832609 -42.994404
LeftForeArm 9.813572 -0.000000 5.714726
LeftHand -12.678167 0.000000 -9.607202
LeftHandThumb1 -26.253704 0.000000 33.147579
RightShoulder -22.972512 -42.815229 -11.792199
RightArm 60.302293 47.121638 62.883131
RightForeArm 7.519744 -0.000000 1.727887
RightHand 0.806201 -0.000000 5.827842
RightHandThumb1 -24.326973 -0.000000 -32.862282
LeftUpLeg -37.002828 22.869061 -6.747916
LeftLeg 30.361653 -0.000000 -0.000000
LeftFoot -10.221219 10.403585 -15.485286
LeftToeBase -1.476812 -0.000000 0.000000
RightUpLeg -23.560601 -4.714568 -0.194804
RightLeg 10.340108 -0.000000 -0.000000
RightFoot -14.807432 -9.604747 15.940272
RightToeBase 12.692993 -0.000000 -0.000000
2
root 4.715941 36.417272 -2.378970 -86.505680 -86.542914 108.001985
Spine -16.180165 3.011383 -2.392424
Head 7.394850 11.045410 1.965082
LeftShoulder -5.839582 13.140794 27.498977
LeftArm 16.032436 -39.727315 -43.012881
LeftForeArm 9.751276 0.000000 5.934324
LeftHand -12.667879 -0.000000 -9.610271
LeftHandThumb1 -26.253704 0.000000 33.147579
RightShoulder -23.078103 -42.915430 -11.624921
RightArm 60.038439 46.936546 62.562567
RightForeArm 7.707522 0.000000 1.856771
RightHand 0.874362 -0.000000 5.715692
RightHandThumb1 -24.326973 -0.000000 -32.862282
LeftUpLeg -37.168655 23.152668 -7.164228
LeftLeg 30.386709 -0.000000 -0.000000
LeftFoot -10.451315 10.670036 -15.535529
LeftToeBase -1.120456 -0.000000 0.000000
RightUpLeg -23.595389 -4.792555 -0.178132
RightLeg 10.340685 -0.000000 -0.000000
RightFoot -14.845025 -9.654237 16.002464
RightToeBase 12.725730 -0.000000 -0.000000
3
root 4.714533 36.416406 -2.361201 -83.475159 -86.609546 105.032524
Spine -16.271265 2.984920 -2.364598
Head 7.362579 11.084465 1.953779
LeftShoulder -5.848195 13.158044 27.477932
LeftArm 16.059678 -39.608842 -42.984651
LeftForeArm 9.723707 0.000000 6.105372
LeftHand -12.612083 -0.000000 -9.620450
LeftHandThumb1 -26.253704 0.000000 33.147579
RightShoulder -23.116566 -42.967370 -11.537483
RightArm 60.093029 46.885742 62.670278
RightForeArm 7.492967 0.000000 1.948945
RightHand 0.796356 0.000000 5.714816
RightHandThumb1 -24.326973 -0.000000 -32.862282
LeftUpLeg -37.366691 23.441694 -7.604499
LeftLeg 30.393036 -0.000000 -0.000000
LeftFoot -10.717014 10.907166 -15.740552
LeftToeBase -0.837412 -0.000000 0.000000
RightUpLeg -23.624015 -4.876681 -0.155001
RightLeg 10.319726 -0.000000 -0.000000
RightFoot -14.880186 -9.731538 16.069495
RightToeBase 12.695361 -0.000000 -0.000000
4
root 4.710969 36.415259 -2.340890 -80.909132 -86.664447 102.522378
Spine -16.359103 3.014129 -2.367751
Head 7.324245 11.085646 1.973121
LeftShoulder -5.826724 13.210601 27.501321
LeftArm 16.128756 -39.536233 -43.038457
LeftForeArm 9.659007 -0.000000 6.292230
LeftHand -12.595367 -0.000000 -9.650300
LeftHandThumb1 -26.253704 0.000000 33.147579
RightShoulder -23.218704 -43.064164 -11.361116
RightArm 60.075206 46.779322 62.617909
RightForeArm 7.528648 -0.000000 2.014701
RightHand 0.761111 -0.000000 5.769465
RightHandThumb1 -24.326973 -0.000000 -32.862282
LeftUpLeg -37.518651 23.756508 -8.030845
LeftLeg 30.359016 -0.000000 -0.000000
LeftFoot -10.972504 11.062676 -15.784707
LeftToeBase -0.703582 -0.000000 0.000000
RightUpLeg -23.650429 -4.907140 -0.150965
RightLeg 10.308673 -0.000000 -0.000000
RightFoot -14.925267 -9.823848 16.159354
RightToeBase 12.724063 -0.000000 -0.000000
